<svg width="373" height="373" viewBox="0 0 373 373" fill="none" xmlns="http://www.w3.org/2000/svg">
<path d="M4.78428 51.8041C-10.4427 21.6531 21.6531 -10.4428 51.8041 4.78426L170.841 64.9011C180.763 69.9119 192.475 69.9119 202.397 64.9011L321.435 4.78427C351.586 -10.4427 383.682 21.6531 368.455 51.8041L308.338 170.841C303.327 180.763 303.327 192.475 308.338 202.397L368.455 321.435C383.682 351.586 351.586 383.682 321.435 368.455L202.397 308.338C192.476 303.327 180.763 303.327 170.841 308.338L51.8041 368.455C21.6531 383.682 -10.4427 351.586 4.78428 321.435L64.9011 202.397C69.9119 192.475 69.9119 180.763 64.9011 170.841L4.78428 51.8041Z" fill="black"/>
</svg>
