<svg width="122" height="128" viewBox="0 0 122 128" fill="none" xmlns="http://www.w3.org/2000/svg">
<path d="M60.8051 3.10741e-05C60.5005 0.00142244 60.1933 0.0520333 59.9007 0.152211L1.86241 20.4248C0.63131 20.8533 -0.13969 22.0874 0.0211301 23.3869L9.19505 98.8629C9.30319 99.7561 9.8291 100.543 10.6193 100.972L59.5541 127.663C59.9645 127.888 60.4208 128 60.8755 128C61.333 128 61.7946 127.886 62.2078 127.658L111.392 100.602C112.174 100.171 112.705 99.3864 112.811 98.4987L121.979 23.0282C122.14 21.7231 121.361 20.4782 120.116 20.0552L61.7041 0.141341C61.413 0.043946 61.1098 -0.00136029 60.8051 3.10741e-05ZM61.0001 13.9082L97.0459 91.8246H84.7418L77.0301 75.1499H44.9701L37.2584 91.8246H24.9543L61.0001 13.9082ZM61.0001 40.3441L50.1311 63.9973H71.8691L61.0001 40.3441Z" fill="black"/>
</svg>
