<svg width="102" height="128" viewBox="0 0 102 128" fill="none" xmlns="http://www.w3.org/2000/svg">
<path d="M0 83.2439C0 83.2439 17.1232 74.9025 34.2942 74.9025L47.2406 34.8357C47.7253 32.8981 49.1405 31.5812 50.7382 31.5812C52.3359 31.5812 53.7511 32.8981 54.2358 34.8357L67.1823 74.9025C87.5188 74.9025 101.476 83.2439 101.476 83.2439C101.476 83.2439 72.3913 4.01027 72.3345 3.8513C71.4997 1.50873 70.0904 0 68.1905 0H33.2889C31.389 0 30.0366 1.50873 29.145 3.8513C29.0821 4.00728 0 83.2439 0 83.2439Z" fill="black"/>
<path d="M33.0041 109.023C27.2216 103.737 25.5334 92.6309 27.9427 84.5845C32.12 89.6576 37.9081 91.2646 43.9035 92.1718C53.1588 93.5716 62.2485 93.048 70.8464 88.8177C71.83 88.3333 72.739 87.6894 73.8138 87.0371C74.6205 89.3777 74.8305 91.7405 74.5486 94.1455C73.8635 100.003 70.9487 104.527 66.3127 107.957C64.4589 109.328 62.4972 110.555 60.5826 111.848C54.7006 115.824 53.1092 120.485 55.3194 127.266C55.3719 127.432 55.4189 127.597 55.5377 128C52.5345 126.656 50.3408 124.699 48.6693 122.125C46.9038 119.41 46.0639 116.406 46.0198 113.156C45.9976 111.574 45.9976 109.978 45.7849 108.418C45.2655 104.617 43.4807 102.914 40.1184 102.816C36.6676 102.716 33.938 104.849 33.2141 108.209C33.1589 108.466 33.0787 108.721 32.9986 109.02L33.0041 109.023Z" fill="black"/>
</svg>
