<svg width="128" height="128" viewBox="0 0 128 128" fill="none" xmlns="http://www.w3.org/2000/svg">
<path d="M59.8084 0.0344454C59.5332 0.059466 58.6573 0.147039 57.8691 0.209592C39.6887 1.84846 22.6596 11.6566 11.8741 26.7316C5.86824 35.1136 2.02698 44.6214 0.575562 54.6923C0.0625612 58.2077 0 59.2461 0 64.0125C0 68.779 0.0625612 69.8173 0.575562 73.3327C4.05397 97.3652 21.1581 117.557 44.3558 125.038C48.5098 126.377 52.8891 127.29 57.8691 127.84C59.8084 128.054 68.1916 128.054 70.131 127.84C78.7269 126.89 86.009 124.763 93.191 121.097C94.2921 120.534 94.5048 120.384 94.3547 120.259C94.2546 120.184 89.5625 113.891 83.9319 106.285L73.697 92.4612L60.8719 73.4829C53.815 63.0492 48.0093 54.5171 47.9593 54.5171C47.9093 54.5047 47.8592 62.9367 47.8342 73.2326C47.7967 91.2601 47.7842 91.9858 47.5589 92.4111C47.2337 93.0241 46.9834 93.2744 46.4579 93.5496C46.0575 93.7497 45.7071 93.7873 43.8179 93.7873H41.6531L41.0776 93.4244C40.7022 93.1867 40.427 92.874 40.2394 92.5112L39.9766 91.9481L40.0015 66.8649L40.039 41.7691L40.427 41.2811C40.6272 41.0185 41.0525 40.6807 41.3528 40.518C41.8659 40.2678 42.0661 40.2428 44.2307 40.2428C46.7832 40.2428 47.2086 40.3429 47.8717 41.0685C48.0594 41.2686 55.0038 51.7274 63.3119 64.3252C71.62 76.9233 82.981 94.125 88.5615 102.569L98.6963 117.92L99.2094 117.582C103.751 114.629 108.556 110.426 112.36 106.047C120.455 96.7522 125.673 85.4177 127.424 73.3327C127.937 69.8173 128 68.779 128 64.0125C128 59.2461 127.937 58.2077 127.424 54.6923C123.946 30.6598 106.842 10.4681 83.6442 2.9869C79.5526 1.6608 75.1985 0.747536 70.3187 0.19708C69.1174 0.0719758 60.847 -0.0656377 59.8084 0.0344454ZM86.009 38.7415C86.6095 39.0418 87.0976 39.6173 87.2727 40.2177C87.3728 40.5431 87.3979 47.4989 87.3728 63.1743L87.3353 85.668L83.369 79.588L79.3901 73.508V57.1569C79.3901 46.5856 79.4401 40.6432 79.5151 40.3554C79.7153 39.6548 80.1532 39.1044 80.7539 38.7791C81.2668 38.5163 81.4546 38.4914 83.419 38.4914C85.2708 38.4914 85.596 38.5163 86.009 38.7415Z" fill="black"/>
</svg>
