<svg width="144" height="128" viewBox="0 0 144 128" fill="none" xmlns="http://www.w3.org/2000/svg">
<path d="M101.117 128C94.1523 128 85.3184 123.801 76.1003 115.863C65.8068 107.003 55.334 93.8165 46.5769 78.6835C37.9733 63.8321 31.828 48.3919 29.2418 35.1537C27.731 27.4208 27.4494 20.328 28.4224 14.6179C29.4978 8.39568 32.0328 3.96589 35.7968 1.7894C43.4274 -2.64039 56.4095 1.91743 69.622 13.6705C78.9937 21.9923 88.8263 34.6416 97.3018 49.2881C106.341 64.9076 112.409 79.6309 114.816 91.8704C116.378 99.8082 116.634 107.183 115.533 113.174C114.355 119.55 111.692 124.082 107.851 126.31C105.931 127.437 103.652 128 101.117 128ZM51.9029 75.6108C60.1991 89.95 70.4926 102.932 80.1204 111.203C91.6686 121.138 100.835 123.289 104.804 120.984C108.927 118.603 111.948 108.847 108.824 93.0739C106.52 81.5001 100.707 67.4169 92.0015 52.3864C83.8332 38.2776 74.4359 26.1661 65.5507 18.2795C53.1063 7.21782 43.0177 4.73406 38.8951 7.1154C36.7955 8.31887 35.2335 11.366 34.491 15.6677C33.646 20.6352 33.902 26.9855 35.2847 33.9758C37.7429 46.5482 43.6322 61.3228 51.9029 75.6108Z" fill="black"/>
<path d="M42.7872 127.923C40.1754 127.923 37.8709 127.36 35.9249 126.233C28.576 121.983 26.0154 109.743 29.1137 93.4834C31.6487 80.1428 37.8453 64.4721 46.5769 49.3391C55.1548 34.4878 65.4483 21.4288 75.6138 12.5948C81.5543 7.42248 87.5717 3.63283 93.0001 1.63558C98.915 -0.540908 104.036 -0.540907 107.775 1.60998C115.431 6.01417 117.966 19.534 114.381 36.8435C111.846 49.1343 105.803 63.96 97.3531 78.6321C88.3398 94.2516 78.6096 106.85 69.2123 115.069C63.1182 120.395 56.8448 124.287 51.1091 126.31C48.1132 127.385 45.2966 127.923 42.7872 127.923ZM49.2143 50.8754L51.8773 52.4118C43.6066 66.751 37.4868 82.1401 35.1311 94.6357C32.2889 109.615 35.0287 118.628 38.972 120.907C39.945 121.471 41.2253 121.778 42.7872 121.778C47.8828 121.778 55.8974 118.551 65.1666 110.46C74.0518 102.701 83.3467 90.6156 92.0271 75.585C100.17 61.4762 105.957 47.2906 108.364 35.64C111.718 19.3292 108.824 9.34291 104.702 6.96158C102.602 5.75811 99.1967 5.91174 95.0998 7.42248C90.3627 9.16367 85.0111 12.5692 79.6339 17.2551C69.9805 25.6538 60.1223 38.1494 51.8773 52.4374L49.2143 50.8754Z" fill="black"/>
<path d="M71.9521 93.3042C53.9001 93.3042 38.127 91.1789 26.3227 87.1332C18.6666 84.5214 12.1627 81.039 7.52809 77.0701C2.61179 72.8708 0 68.2873 0 63.8575C0 55.3564 9.32049 47.0346 24.9656 41.6061C37.7685 37.1507 54.4634 34.667 71.9265 34.667C89.0824 34.667 105.547 37.0739 118.273 41.4781C125.724 44.0387 131.998 47.3674 136.453 51.0547C141.293 55.1004 143.853 59.5302 143.853 63.8575C143.853 72.6915 133.432 81.6279 116.634 87.1844C104.753 91.1277 88.8775 93.3042 71.9521 93.3042ZM71.9521 40.8124C55.3852 40.8124 38.9976 43.2193 27.0141 47.393C12.6236 52.4118 6.17098 59.2741 6.17098 63.8575C6.17098 68.6202 13.1101 76.1227 28.32 81.3207C39.4841 85.1359 54.5915 87.1588 71.9521 87.1588C88.2374 87.1588 103.422 85.1103 114.714 81.3463C130.512 76.0971 137.733 68.5946 137.733 63.8575C137.733 61.425 135.89 58.5572 132.535 55.7661C128.669 52.5398 123.036 49.5951 116.301 47.265C104.19 43.1169 88.4423 40.8124 71.9521 40.8124Z" fill="black"/>
<path d="M71.9521 76.7116C79.0513 76.7116 84.8062 70.9566 84.8062 63.8575C84.8062 56.7584 79.0513 51.0034 71.9521 51.0034C64.853 51.0034 59.0981 56.7584 59.0981 63.8575C59.0981 70.9566 64.853 76.7116 71.9521 76.7116Z" fill="black"/>
</svg>
