<svg width="107" height="128" viewBox="0 0 107 128" fill="none" xmlns="http://www.w3.org/2000/svg">
<path d="M101.083 57.3076C123.06 21.9247 79.0057 -14.5265 47.6953 5.8886L17.9186 24.8341C3.49945 34.2061 -2.76136 52.2124 6.03175 70.7166C-15.9533 104 26.8253 142.974 59.4195 122.157L89.1963 103.212C105.398 92.5659 109.115 74.2072 101.083 57.3076ZM26.533 37.086L56.2664 18.1513C75.7992 6.48161 98.2909 26.8869 90.1823 45.8992C85.3663 42.0807 79.999 39.7329 75.9225 38.6757C77.4722 32.5331 70.3274 27.9767 65.3576 31.1493L35.5592 50.0192C28.1915 55.1013 36.0468 65.5538 43.3285 61.1681L54.6843 53.9446C80.1675 39.5938 104.286 74.0509 80.5818 90.9382L50.8485 109.873C32.9309 121.306 8.54473 102.99 16.9325 82.1251C21.3881 85.4907 26.1204 87.9658 31.1924 89.3486C30.0724 96.4039 37.2061 99.8344 41.8331 96.9398L71.5556 78.0051C78.8907 72.5162 71.0173 62.582 63.7972 66.8561L52.398 74.0797C27.2065 88.7723 2.52752 53.9747 26.533 37.086Z" fill="black"/>
</svg>
