<svg width="128" height="128" viewBox="0 0 128 128" fill="none" xmlns="http://www.w3.org/2000/svg">
<path d="M44.1726 56.4146L46.9068 10.2439C46.9286 9.88265 47.0699 9.53884 47.3087 9.26658C47.5475 8.99432 47.8701 8.80906 48.2258 8.73993L92.7205 0.0305875C92.9953 -0.0233076 93.2794 -0.00576798 93.5454 0.0815233C93.8115 0.168815 94.0506 0.322928 94.2399 0.529076C94.4291 0.735225 94.5622 0.986489 94.6262 1.25876C94.6903 1.53103 94.6832 1.81517 94.6056 2.08392L86.2856 30.8999C86.2084 31.1682 86.2013 31.4517 86.2652 31.7234C86.329 31.9952 86.4615 32.246 86.6501 32.452C86.8387 32.658 87.077 32.8122 87.3422 32.9C87.6075 32.9877 87.8909 33.0061 88.1653 32.9533L100.918 30.4999C101.218 30.4413 101.528 30.468 101.814 30.5768C102.1 30.6857 102.349 30.8724 102.534 31.1158C102.718 31.3591 102.831 31.6493 102.859 31.9534C102.887 32.2575 102.828 32.5633 102.691 32.8359L66.4306 105.103L65.7738 106.116C65.6326 106.345 65.4346 106.535 65.1989 106.665C64.9632 106.796 64.6977 106.864 64.4281 106.863C63.4828 106.863 62.559 106.052 62.7993 104.895L68.6468 76.6226C68.7042 76.3457 68.6886 76.0586 68.6015 75.7895C68.5143 75.5205 68.3587 75.2786 68.1497 75.0877C67.9408 74.8968 67.6858 74.7634 67.4097 74.7006C67.1336 74.6377 66.8459 74.6476 66.5748 74.7293L58.9223 77.0493C58.6514 77.1318 58.3636 77.1425 58.0873 77.0804C57.811 77.0183 57.5556 76.8856 57.3461 76.6952C57.1366 76.5048 56.9803 76.2633 56.8924 75.9944C56.8046 75.7255 56.7882 75.4384 56.845 75.1613L60.5297 57.1613C60.5856 56.8925 60.5727 56.6141 60.4922 56.3516C60.4117 56.0892 60.2663 55.8512 60.0693 55.6598C59.8723 55.4684 59.6302 55.3297 59.3653 55.2566C59.1004 55.1834 58.8213 55.1781 58.5538 55.2413L46.1645 58.1C45.9173 58.1567 45.6602 58.1551 45.4136 58.0954C45.167 58.0357 44.9378 57.9195 44.744 57.756C44.5502 57.5925 44.3972 57.3861 44.2971 57.1533C44.197 56.9205 44.1525 56.6676 44.1673 56.4146H44.1726ZM124.148 14.1426L92.2239 19.9453L89.3188 30.0093L100.41 27.8759C101.27 27.7048 102.161 27.8019 102.964 28.1539C103.766 28.506 104.441 29.096 104.896 29.8439C105.283 30.466 105.502 31.1769 105.534 31.9082C105.566 32.6396 105.409 33.3668 105.078 34.0199L68.8124 106.292L68.743 106.425L68.6628 106.548L68.0113 107.561C67.6262 108.164 67.0959 108.66 66.469 109.005C65.842 109.35 65.1384 109.532 64.4227 109.535C63.7746 109.531 63.1351 109.385 62.5499 109.107C61.9648 108.828 61.4482 108.424 61.037 107.924C60.6371 107.43 60.3528 106.852 60.205 106.234C60.0572 105.616 60.0495 104.972 60.1826 104.351L65.6777 77.7853L59.6966 79.5986C58.8785 79.8448 58.0057 79.8434 57.1884 79.5947C56.3711 79.346 55.6458 78.8612 55.104 78.2013C54.7001 77.7087 54.4114 77.1323 54.259 76.5141C54.1066 75.8959 54.0942 75.2515 54.2229 74.628L57.5872 58.2013L46.7626 60.6973C46.0298 60.8649 45.2659 60.8384 44.5466 60.6205C43.8272 60.4025 43.1773 60.0006 42.6613 59.4546C42.2613 59.0274 41.9523 58.5234 41.7532 57.9734C41.554 57.4233 41.4687 56.8386 41.5025 56.2546L43.5798 21.2146L3.84863 14.1213C3.23647 14.0109 2.6055 14.0774 2.02984 14.3128C1.45418 14.5482 0.957741 14.9427 0.598842 15.4502C0.239943 15.9576 0.0334918 16.5567 0.00374097 17.1773C-0.0260099 17.7978 0.122176 18.4139 0.430889 18.9533L61.7633 126.351C62.0498 126.853 62.4649 127.271 62.9661 127.561C63.4674 127.851 64.0367 128.002 64.6159 128C65.195 127.998 65.7632 127.842 66.2622 127.548C66.7613 127.255 67.1732 126.834 67.456 126.329L127.587 18.9426C127.888 18.4023 128.03 17.7876 127.995 17.1701C127.96 16.5525 127.75 15.9576 127.39 15.4547C127.029 14.9517 126.533 14.5613 125.959 14.329C125.385 14.0967 124.757 14.0321 124.148 14.1426Z" fill="black"/>
</svg>
